<svg width="21" height="20" viewBox="0 0 21 20" fill="none" xmlns="http://www.w3.org/2000/svg">
<path d="M0.833374 0.85498H19.1705V19.1456H0.833374V0.85498Z" fill="url(#paint0_radial)"/>
<path d="M0.833492 0.854688H19.1706V19.1453H0.833492V0.854688ZM0 20H20.0041V0H0V20ZM14.1529 9.64102C14.5779 9.64102 14.728 9.64102 14.7696 9.62393C14.7696 9.56411 14.7863 9.52135 14.7863 9.47862C14.7863 9.01707 14.5696 8.16238 13.7028 8.16238C12.9026 8.16238 12.5609 8.8803 12.4775 9.64102H14.1529ZM12.4609 10.8119C12.4775 11.9658 13.011 12.7436 14.2779 12.7436C14.7697 12.7436 15.1947 12.6752 15.6365 12.4787C15.6949 12.453 15.7366 12.4616 15.7366 12.5385V13.6068C15.7366 13.6923 15.7116 13.7351 15.6532 13.7778C15.2115 14 14.6613 14.1026 13.9779 14.1026C11.7775 14.1026 10.9523 12.4359 10.9523 10.5812C10.9523 8.56414 11.9692 6.91459 13.7612 6.91459C15.5782 6.91459 16.2117 8.47868 16.2117 9.75219C16.2117 10.1625 16.1867 10.4958 16.145 10.6582C16.1284 10.7266 16.1034 10.7522 16.0367 10.7693C15.8699 10.795 15.3782 10.8291 14.6447 10.8291H12.4609V10.8119ZM7.99333 9.94016C7.75994 8.99144 7.19314 6.92306 6.98476 5.92306H6.96809C6.79308 6.92306 6.33461 8.61535 5.99289 9.94016H7.99333ZM5.65113 11.3248L4.99268 13.8803C4.97602 13.9487 4.95101 13.9744 4.86764 13.9744H3.64239C3.55905 13.9744 3.54235 13.9487 3.55905 13.8462L5.92618 5.35897C5.96785 5.20514 5.99285 5.08547 6.00952 4.65814C6.00952 4.59832 6.03452 4.57268 6.07619 4.57268H7.82655C7.88488 4.57268 7.90989 4.58977 7.92659 4.65814L10.5771 13.8633C10.5938 13.9316 10.5771 13.9744 10.5104 13.9744H9.13517C9.0685 13.9744 9.0268 13.9487 9.01013 13.8889L8.32665 11.3248H5.65113V11.3248Z" fill="#D8A1FF"/>
<defs>
<radialGradient id="paint0_radial" cx="0" cy="0" r="1" gradientUnits="userSpaceOnUse" gradientTransform="translate(6.87271 4.95392) scale(13.9362 13.8359)">
<stop stop-color="#442F55" stop-opacity="0.98"/>
<stop offset="1" stop-color="#12002C"/>
</radialGradient>
</defs>
</svg>
