<svg width="18" height="19" viewBox="0 0 18 19" fill="none" xmlns="http://www.w3.org/2000/svg">
<path d="M0.0646755 8.99378C0.147786 8.63943 0.297386 8.30195 0.513474 8.0151C0.729562 7.72824 1.02876 7.50888 1.3612 7.34014C1.82663 7.12078 2.32529 7.03641 2.84058 6.96892V6.36146C2.84058 6.12522 2.84058 5.88899 2.89044 5.65275C2.94031 5.41652 3.04004 5.19716 3.17302 4.99467C3.43898 4.60657 3.83791 4.33659 4.23684 4.08348C4.88511 3.66163 5.54999 3.23979 6.19826 2.81794C5.96555 2.83481 5.74946 2.83481 5.51675 2.80107C5.0347 2.73357 4.56928 2.58171 4.12049 2.44671C3.67169 2.31172 3.1564 2.22735 2.69098 2.31172C2.4084 2.36234 2.14245 2.48046 1.92636 2.66607C1.71027 2.83481 1.56067 3.07105 1.47756 3.32416H0.912406C1.31134 2.34547 2.02609 1.46803 2.99018 0.91119C3.55533 0.590586 4.2036 0.404973 4.85186 0.388099C5.36715 0.371226 5.88244 0.472469 6.39772 0.590586C6.89639 0.69183 7.41168 0.809947 7.92696 0.826821C8.39238 0.843695 8.8578 0.793073 9.3066 0.658082C9.6058 0.556838 9.905 0.421847 10.171 0.269982L10.0214 0.793073L6.59719 3.50977C6.46421 3.61101 6.34786 3.71226 6.2315 3.84725C6.11515 3.98224 6.03204 4.11723 5.96555 4.26909C5.83257 4.57282 5.83257 4.9103 5.83257 5.24778V8.69005V11.0861C5.83257 11.5417 5.81595 12.0142 5.69959 12.4529C5.58324 12.8917 5.38377 13.3135 5.13444 13.7016C4.31995 14.8828 3.0068 15.659 1.64378 15.9964L1.42769 15.4396C1.71027 15.2709 1.9596 15.0515 2.15907 14.7815C2.52476 14.2922 2.7076 13.6679 2.79071 13.0604C2.8572 12.4361 2.84058 11.8286 2.84058 11.2043C2.84058 10.6643 2.84058 10.1412 2.84058 9.60124C2.60787 9.60124 2.37516 9.60124 2.12582 9.60124C1.97623 9.60124 1.84325 9.60124 1.69365 9.63499C1.56067 9.65187 1.41107 9.70249 1.29472 9.78686C1.04538 9.93872 0.879162 10.1918 0.812673 10.4618C0.779429 10.6306 0.762807 10.7993 0.796051 10.968H0.347252C0.0314311 10.3774 -0.0849241 9.65187 0.0646755 8.99378ZM4.98484 17.2114C4.2036 17.2789 3.42235 17.4645 2.7076 17.802C2.05934 18.0888 1.47756 18.5107 0.962273 19H0.380497C1.62716 16.7895 3.83791 15.119 6.29799 14.5959C6.43097 14.3934 6.54732 14.1909 6.64706 13.9716C6.74679 13.7353 6.8299 13.4654 6.87977 13.2123C6.92963 12.9423 6.92963 12.6892 6.92963 12.4192V5.06217C7.81061 3.89787 8.8578 2.88544 10.038 2.02487C11.2348 1.14742 12.5812 0.472469 13.9774 0L17.734 4.47158L14.8418 6.5302C15.3405 6.71581 15.8225 6.93517 16.2879 7.18828C16.9029 7.52575 17.4681 7.91385 18 8.36945V14.2753L10.2541 18.3419C8.64172 17.4813 6.79666 17.0595 4.98484 17.2114ZM10.919 2.12611C10.7195 2.29485 10.5366 2.48046 10.4037 2.69982C10.1876 3.0373 10.0546 3.4254 10.0047 3.83037V8.67318V9.98934C10.0047 10.3437 10.0047 10.7149 9.93825 11.0693C9.87176 11.4236 9.77202 11.778 9.6058 12.0986C9.27336 12.7398 8.75807 13.2629 8.22616 13.7353C7.97683 13.9547 7.7275 14.1909 7.47816 14.4103C8.54198 14.3428 9.62242 14.4778 10.6364 14.849C10.7361 14.8828 10.8358 14.9165 10.919 14.9671C10.919 10.698 10.919 6.41208 10.919 2.12611ZM11.5838 8.0151L14.6756 5.66963L11.5838 1.99112C11.5838 3.99911 11.5838 6.0071 11.5838 8.0151ZM11.5838 11.3393L14.6257 9.76998C14.2766 9.53375 13.9276 9.29751 13.5619 9.09503C12.9302 8.74067 12.2653 8.43694 11.5838 8.18384V11.3393ZM11.5838 13.8028L14.9581 12.0648V10.3606L11.5838 12.0817V13.8028ZM13.0798 16.3171L14.9748 15.4227V12.8242L11.5838 14.5622V15.2877C12.1157 15.5746 12.631 15.9121 13.0798 16.3171Z" fill="#278BFF"/>
</svg>
