<svg width="56" height="55" viewBox="0 0 56 55" fill="none" xmlns="http://www.w3.org/2000/svg">
<path d="M2.31396 2.31348H53.2243V51.8354H2.31396V2.31348Z" fill="url(#paint0_radial)"/>
<path d="M2.31407 2.31407H53.2244V51.836H2.31407V2.31407ZM0 54.1501H55.5385V0H0V54.1501ZM35.1281 22.4931C34.781 22.3311 34.3181 22.2617 33.7627 22.2617C30.7776 22.2617 28.6949 24.5527 28.6949 28.3709C28.6949 32.7214 30.8238 34.4801 33.4852 34.4801C34.0636 34.4801 34.6653 34.4107 35.1281 34.2024V22.4931ZM33.9015 18.7211C34.3875 18.7211 34.6653 18.7211 35.128 18.7674V12.6119C35.128 12.4499 35.2437 12.3805 35.3593 12.3805H39.1082C39.2933 12.3805 39.3396 12.4499 39.3396 12.5656V34.2025C39.3396 34.8504 39.3396 35.6604 39.4553 36.5397C39.4553 36.7017 39.409 36.7248 39.2471 36.8175C37.2569 37.7662 35.1512 38.1828 33.1842 38.1828C28.07 38.1828 24.4137 35.0125 24.4137 28.5561C24.3906 23.0253 28.0469 18.7211 33.9015 18.7211ZM20.3179 37.5349C20.3179 37.7661 20.2716 37.8356 20.017 37.8356H16.4533C16.2219 37.8356 16.1524 37.72 16.1524 37.5349V12.6813C16.1524 12.4499 16.2681 12.3804 16.4533 12.3804H20.0402C20.2253 12.3804 20.3179 12.4498 20.3179 12.6581V37.5349Z" fill="#FF408C"/>
<defs>
<radialGradient id="paint0_radial" cx="0" cy="0" r="1" gradientUnits="userSpaceOnUse" gradientTransform="translate(19.0814 13.4114) scale(38.6918 37.4607)">
<stop stop-color="#4B2B36" stop-opacity="0.98"/>
<stop offset="1" stop-color="#250012"/>
</radialGradient>
</defs>
</svg>
