<svg width="53" height="62" viewBox="0 0 53 62" fill="none" xmlns="http://www.w3.org/2000/svg">
<g clip-path="url(#clip0)">
<path d="M39.1107 21.9115L53 13.4159L26.5 0V15.5929L39.1107 21.9115Z" fill="#F8A69B"/>
<path d="M39.1108 21.9116L53.0001 13.416V29.2036L39.1108 21.9116Z" fill="#EC615A"/>
<path d="M39.9866 37.4509L53.0001 29.2031V45.0084L39.9866 37.4509Z" fill="#EC615A"/>
<path d="M39.1107 21.9123L26.5 15.5938V29.6468L39.1107 21.9123Z" fill="#F04845"/>
<path d="M39.9865 37.4519L53 29.2041L39.1107 21.9121L26.5 29.6466L39.9865 37.4519Z" fill="#EE1C25"/>
<path d="M26.5 29.6465V46.0359L39.9865 37.4518L26.5 29.6465Z" fill="#D71F27"/>
<path d="M26.5 46.0362V62.0008L53 45.0097L39.9865 37.4521L26.5 46.0362Z" fill="#C93E41"/>
<path d="M13.8893 21.9115L0 13.4159L26.5 0V15.5929L13.8893 21.9115Z" fill="#E68B90"/>
<path d="M13.8893 21.9116L0 13.416V29.2036L13.8893 21.9116Z" fill="#E75C59"/>
<path d="M13.0135 37.4509L0 29.2031V45.0084L13.0135 37.4509Z" fill="#E75C59"/>
<path d="M13.8894 21.9123L26.5001 15.5938V29.6468L13.8894 21.9123Z" fill="#E7323B"/>
<path d="M13.0135 37.4519L0 29.2041L13.8893 21.9121L26.5 29.6466L13.0135 37.4519Z" fill="#EE1C25"/>
<path d="M26.5001 29.6465V46.0359L13.0137 37.4518L26.5001 29.6465Z" fill="#DD2328"/>
<path d="M26.5 46.0362V62.0008L0 45.0097L13.0135 37.4521L26.5 46.0362Z" fill="#D44946"/>
</g>
<defs>
<clipPath id="clip0">
<rect width="53" height="62" fill="white"/>
</clipPath>
</defs>
</svg>
