<svg width="41" height="61" viewBox="0 0 41 61" fill="none" xmlns="http://www.w3.org/2000/svg">
<path d="M10.2369 61C15.8873 61 20.4738 56.4445 20.4738 50.8325V40.665H10.2369C4.58659 40.665 0 45.2205 0 50.8325C0 56.4445 4.58659 61 10.2369 61Z" fill="#0ACF83"/>
<path d="M0 30.5005C0 24.8885 4.58659 20.333 10.2369 20.333H20.4738V40.6655H10.2369C4.58659 40.668 0 36.1125 0 30.5005Z" fill="#A259FF"/>
<path d="M0 10.1675C0 4.55548 4.58659 0 10.2369 0H20.4738V20.3325H10.2369C4.58659 20.3325 0 15.7795 0 10.1675Z" fill="#F24E1E"/>
<path d="M20.4714 0H30.7084C36.3587 0 40.9453 4.55548 40.9453 10.1675C40.9453 15.7795 36.3587 20.3325 30.7084 20.3325H20.4714V0Z" fill="#FF7262"/>
<path d="M40.9453 30.5005C40.9453 36.1125 36.3587 40.6679 30.7084 40.6679C25.058 40.6679 20.4714 36.1125 20.4714 30.5005C20.4714 24.8885 25.058 20.333 30.7084 20.333C36.3587 20.333 40.9453 24.8885 40.9453 30.5005Z" fill="#1ABCFE"/>
</svg>
