<svg width="47" height="54" viewBox="0 0 47 54" fill="none" xmlns="http://www.w3.org/2000/svg">
<path d="M22.8436 0C15.1415 8.74244 12.1657 13.4669 11.5531 20.5756C11.5093 20.5756 11.5093 20.5315 11.4655 20.5315C8.62104 18.8978 6.34544 15.5421 4.98883 12.1423L0 14.085C3.63222 25.2118 6.25791 30.1128 11.9907 34.175C11.9469 34.2191 11.9469 34.2191 11.9032 34.2633C9.05866 35.9411 5.07635 36.2502 1.44413 35.7645L0.656425 41.063C12.0345 43.4473 17.5922 43.6239 23.9814 40.6214C23.9814 40.6656 23.9814 40.7097 23.9814 40.7539C23.9814 44.0654 22.2747 47.7302 19.9991 50.6002L24.1564 53.9558C31.9022 45.2134 34.8343 40.489 35.4469 33.4244C35.4907 33.4244 35.4907 33.4685 35.5344 33.4685C38.379 35.1022 40.6546 38.4579 42.0112 41.8577L47 39.915C43.3678 28.7882 40.7421 23.8872 35.0093 19.7809C35.0531 19.7367 35.0531 19.7367 35.0968 19.6926C37.9413 18.0147 41.9236 17.7056 45.5559 18.2355L46.3436 12.8929C34.9655 10.5086 29.4516 10.332 23.0624 13.3344C23.0624 13.2903 23.0624 13.2461 23.0624 13.202C23.0624 9.89043 24.7691 6.22567 27.0447 3.35568L22.8436 0ZM23.2812 19.8692C27.176 19.7367 30.4581 22.8275 30.5894 26.8013C30.7207 30.731 27.6574 34.0425 23.7188 34.175C19.824 34.3074 16.5419 31.2167 16.4106 27.2428C16.3231 23.269 19.3864 19.9575 23.2812 19.8692Z" fill="black"/>
</svg>
