<svg width="56" height="57" viewBox="0 0 56 57" fill="none" xmlns="http://www.w3.org/2000/svg">
<path d="M56 0.230469H0V56.2304H56V0.230469Z" fill="#00E4BB"/>
<path d="M53.5452 2.7002H2.47021V53.7752H53.5452V2.7002Z" fill="#002620"/>
<path d="M15.7566 31.9128L13.7314 38.8016C13.7007 39.0471 13.5933 39.1238 13.3939 39.1238H10.0032C9.77307 39.1238 9.7117 39.0011 9.77307 38.7249C11.5681 32.6646 14.5906 22.554 16.7232 15.6959C16.8153 15.297 16.9227 14.8981 16.984 13.5172C16.984 13.3638 17.0761 13.2871 17.1835 13.2871H21.7709C21.9396 13.2871 21.9703 13.3331 22.0317 13.4866C24.4865 21.6181 27.1868 30.5627 29.7029 38.7709C29.7643 39.0164 29.7029 39.1238 29.5035 39.1238H25.7753C25.6065 39.1238 25.5451 39.0471 25.4837 38.8783L23.3665 31.9128H15.7566ZM22.4613 28.0159C21.8016 25.3616 20.1753 20.0071 19.5002 17.2301H19.4695C18.9785 19.8383 17.6131 24.3183 16.6158 28.0159H22.4613Z" fill="#00E4BB"/>
<path fill-rule="evenodd" clip-rule="evenodd" d="M45.6132 35.2732C45.6132 35.534 45.6439 36.3471 45.7206 37.6666C45.7206 37.82 45.7053 37.8967 45.5518 37.9274C43.5113 38.6945 41.256 39.5077 38.4023 39.5077C34.9042 39.5077 31.5442 38.1576 31.5442 32.7724V20.4677C31.5442 20.2682 31.6209 20.1608 31.8204 20.1608H35.4872C35.6866 20.1608 35.7634 20.2836 35.7634 20.4677V32.266C35.7634 34.5367 36.6225 35.7641 39.016 35.7641C39.9825 35.7641 40.8571 35.5647 41.4247 35.3345V20.4524C41.4247 20.2529 41.5014 20.1455 41.7009 20.1455H45.337C45.5672 20.1455 45.6132 20.2682 45.6132 20.4524V35.2732Z" fill="#00E4BB"/>
</svg>
