<svg width="57" height="56" viewBox="0 0 57 56" fill="none" xmlns="http://www.w3.org/2000/svg">
<path d="M2.375 2.36816H54.6251V53.0772H2.375V2.36816Z" fill="url(#paint0_radial)"/>
<path d="M2.37497 2.36954H54.625V53.0786H2.37497V2.36954ZM0 55.4482H57V0H0V55.4482ZM33.3688 23.3403C33.3688 23.0559 33.3688 22.3689 33.25 21.0418C33.25 20.8522 33.2975 20.8049 33.44 20.7338C34.8887 20.1414 38.3325 19.0988 42.18 19.0988C42.37 19.0988 42.465 19.1462 42.465 19.3357V22.7479C42.465 22.9375 42.3938 22.9849 42.18 22.9849C40.6837 22.9138 38.475 23.1033 37.6438 23.4587V38.4108C37.6438 38.6004 37.5725 38.6952 37.3587 38.6952H33.63C33.44 38.6952 33.3449 38.6241 33.3449 38.4108V23.3403H33.3688V23.3403ZM15.7938 38.6952C15.5088 38.6952 15.4375 38.5768 15.4375 38.3398V12.8668C15.4375 12.6773 15.5088 12.5587 15.7226 12.5587H19.475C19.6649 12.5587 19.7124 12.6298 19.7124 12.8431V34.7854H29.4974C29.6873 34.7854 29.7587 34.8565 29.7111 35.0698L29.1174 38.4346C29.0699 38.6241 28.9512 38.7189 28.7611 38.7189H15.7938V38.6952Z" fill="#AAD1EB"/>
<defs>
<radialGradient id="paint0_radial" cx="0" cy="0" r="1" gradientUnits="userSpaceOnUse" gradientTransform="translate(19.5836 13.7321) scale(39.71 38.3587)">
<stop stop-color="#39464D" stop-opacity="0.98"/>
<stop offset="1" stop-color="#05151F"/>
</radialGradient>
</defs>
</svg>
