<svg width="56" height="55" viewBox="0 0 56 55" fill="none" xmlns="http://www.w3.org/2000/svg">
<path d="M2.33325 2.32812H53.6665V52.1474H2.33325V2.32812Z" fill="url(#paint0_radial)"/>
<path d="M2.3333 2.32797H53.6666V52.1472H2.3333V2.32797ZM0 54.4753H55.9999V0H0V54.4753ZM36.6799 19.4155C36.6799 19.2293 36.7499 19.1361 36.9599 19.1361H40.6232C40.8098 19.1361 40.9032 19.2059 40.9032 19.4155V37.7835C40.9032 37.9696 40.8565 38.0628 40.6232 38.0628H37.0066C36.7733 38.0628 36.7032 37.9465 36.7032 37.7602V19.4155H36.6799ZM36.4232 14.1309C36.4232 12.641 37.4732 11.7564 38.8033 11.7564C40.2266 11.7564 41.1833 12.7109 41.1833 14.1309C41.1833 15.6674 40.18 16.5055 38.7566 16.5055C37.4032 16.5056 36.4232 15.6674 36.4232 14.1309ZM25.9233 27.0747C25.27 24.4905 23.73 18.8568 23.1466 16.133H23.0999C22.6099 18.8568 21.3733 23.4662 20.3934 27.0747H25.9233ZM19.4366 30.8461L17.5933 37.8301C17.5466 38.0162 17.4766 38.0627 17.2433 38.0627H13.8133C13.58 38.0627 13.5333 37.9929 13.58 37.7136L20.2066 14.5732C20.3233 14.1542 20.3933 13.7817 20.4399 12.641C20.4399 12.4781 20.5099 12.4083 20.6266 12.4083H25.5266C25.6899 12.4083 25.7599 12.4548 25.8066 12.641L33.2265 37.7601C33.2732 37.9463 33.2265 38.0627 33.0399 38.0627H29.1665C28.9799 38.0627 28.8631 38.0162 28.8166 37.8533L26.9032 30.8461H19.4366Z" fill="#FF7F18"/>
<defs>
<radialGradient id="paint0_radial" cx="0" cy="0" r="1" gradientUnits="userSpaceOnUse" gradientTransform="translate(19.2399 13.4927) scale(39.0133 37.6857)">
<stop stop-color="#423325" stop-opacity="0.98"/>
<stop offset="1" stop-color="#1C0A00"/>
</radialGradient>
</defs>
</svg>
