<svg width="56" height="56" viewBox="0 0 56 56" fill="none" xmlns="http://www.w3.org/2000/svg">
<path d="M2.27051 2.26953H53.7297V53.7288H2.27051V2.26953Z" fill="url(#paint0_radial)"/>
<path d="M2.3335 3.08984H53.6667V52.9091H2.3335V3.08984Z" fill="url(#paint1_radial)"/>
<path d="M2.33354 3.08969H53.6668V52.9089H2.33354V3.08969ZM0.000244141 55.237H56.0001V0.761719H0.000244141V55.237ZM37.7535 23.1105C35.9101 23.1105 35.2802 24.0417 35.2802 24.8099C35.2802 25.648 35.7002 26.23 38.1735 27.5104C41.8368 29.2797 42.9802 30.9791 42.9802 33.4701C42.9802 37.1949 40.1335 39.197 36.2835 39.197C34.2535 39.197 32.5035 38.7779 31.5002 38.196C31.3369 38.1261 31.3135 38.0098 31.3135 37.8235V34.4013C31.3135 34.1685 31.4302 34.0986 31.5936 34.2151C33.0636 35.1696 34.7435 35.5886 36.2835 35.5886C38.1269 35.5886 38.8969 34.8204 38.8969 33.7727C38.8969 32.9347 38.3602 32.1897 36.0034 30.9791C32.6901 29.3961 31.3135 27.7898 31.3135 25.1126C31.3135 22.1094 33.6702 19.6185 37.7535 19.6185C39.7602 19.6185 41.1602 19.9212 41.9301 20.2704C42.1168 20.3867 42.1634 20.573 42.1634 20.7359V23.9252C42.1634 24.1114 42.0468 24.2279 41.8134 24.158C40.7868 23.5063 39.2701 23.1105 37.7535 23.1105ZM17.6868 25.8808C18.2235 25.9274 18.6436 25.9274 19.5769 25.9274C22.307 25.9274 24.8736 24.9729 24.8736 21.2714C24.8736 18.3149 23.0302 16.8249 19.9269 16.8249C18.9936 16.8249 18.1069 16.8715 17.6868 16.8947V25.8808ZM13.5336 13.5191C13.5336 13.3562 13.8603 13.2397 14.0469 13.2397C15.5403 13.1699 17.7569 13.1233 20.0669 13.1233C26.5302 13.1233 29.0501 16.6619 29.0501 21.1782C29.0501 27.0913 24.7568 29.6289 19.4835 29.6289C18.5969 29.6289 18.2936 29.5823 17.6635 29.5823V38.5219C17.6635 38.7081 17.5935 38.8012 17.3835 38.8012H13.8136C13.6269 38.8012 13.5335 38.7313 13.5335 38.5219V13.5191H13.5336Z" fill="#31C5F0"/>
<defs>
<radialGradient id="paint0_radial" cx="0" cy="0" r="1" gradientUnits="userSpaceOnUse" gradientTransform="translate(19.2187 13.8016) scale(39.109 38.9262)">
<stop stop-color="#442F55" stop-opacity="0.98"/>
<stop offset="1" stop-color="#12002C"/>
</radialGradient>
<radialGradient id="paint1_radial" cx="0" cy="0" r="1" gradientUnits="userSpaceOnUse" gradientTransform="translate(19.2402 14.2544) scale(39.0132 37.6857)">
<stop stop-color="#34364E" stop-opacity="0.98"/>
<stop offset="1" stop-color="#0C0824"/>
</radialGradient>
</defs>
</svg>
