<svg width="44" height="61" viewBox="0 0 44 61" fill="none" xmlns="http://www.w3.org/2000/svg">
<path fill-rule="evenodd" clip-rule="evenodd" d="M17.3264 55.4685L18.6658 60.826H25.0981L26.3479 55.3789L17.3264 55.4685Z" fill="#61A706"/>
<path fill-rule="evenodd" clip-rule="evenodd" d="M20.681 51.6787L20.9253 52.436L21.08 52.7739L22.631 52.782L22.8142 52.6924L23.0381 52.1632C23.9948 49.7002 26.5067 39.1887 27.0278 36.5059C28.4445 29.2269 29.5071 21.8094 28.99 14.3756C28.7946 11.5666 28.2654 8.42783 27.215 5.802C26.413 3.78683 25.208 1.47854 23.087 0.582904C20.7828 -0.390078 18.56 1.97113 17.5666 3.88453C12.2946 14.0418 15.6614 31.5596 18.1244 41.9448L18.9549 45.507C19.5004 47.571 20.1192 49.403 20.681 51.6787Z" fill="#61A706"/>
<path fill-rule="evenodd" clip-rule="evenodd" d="M20.0213 52.1909L19.1053 51.4378C8.16233 41.1625 -6.84359 6.61547 16.8093 0.244263C17.7741 -0.0162842 17.5746 0.0447816 18.5069 0C-0.0774903 8.00777 12.4614 39.2287 20.0213 52.1909Z" fill="#61A706"/>
<path fill-rule="evenodd" clip-rule="evenodd" d="M23.9785 52.1909L24.8945 51.4378C35.8375 41.1625 50.8434 6.61547 27.1906 0.244263C26.2257 -0.0162842 26.4252 0.0447816 25.493 0C44.0773 8.00777 31.5425 39.2287 23.9785 52.1909Z" fill="#61A706"/>
<path fill-rule="evenodd" clip-rule="evenodd" d="M9.17616 2.74414C4.52294 4.90994 0.948555 9.61201 0.179125 14.713L0 16.8788L0.0203553 18.6213L0.264619 20.5428L0.398963 21.4588C2.23094 31.5428 10.6092 44.7615 17.9819 51.7678C7.78793 38.1664 -7.59659 16.6509 9.17616 2.74414Z" fill="#61A706"/>
<path fill-rule="evenodd" clip-rule="evenodd" d="M34.8239 2.74414C39.4771 4.90994 43.0515 9.61201 43.821 14.713L44.0001 16.8788L43.9757 18.6213L43.7314 20.5428L43.5971 21.4588C41.7651 31.5428 33.3868 44.7615 26.0142 51.7678C36.2122 38.1664 51.5967 16.6509 34.8239 2.74414Z" fill="#61A706"/>
</svg>
