<svg width="57" height="57" viewBox="0 0 57 57" fill="none" xmlns="http://www.w3.org/2000/svg">
<path d="M2.31079 2.31055H54.6892V54.6889H2.31079V2.31055Z" fill="url(#paint0_radial)"/>
<path d="M2.37497 2.43586H54.625V54.564H2.37497V2.43586ZM0 57H57V0H0V57ZM40.3274 27.4769C41.5386 27.4769 41.9662 27.4769 42.0849 27.4282C42.0849 27.2577 42.1324 27.1358 42.1324 27.0141C42.1324 25.6987 41.5149 23.2628 39.0449 23.2628C36.7648 23.2628 35.7912 25.3089 35.5537 27.4769H40.3274ZM35.5063 30.814C35.5538 34.1025 37.0737 36.3192 40.6837 36.3192C42.085 36.3192 43.2962 36.1245 44.555 35.5642C44.7213 35.4911 44.8401 35.5155 44.8401 35.7347V38.7795C44.8401 39.0231 44.7689 39.1449 44.6026 39.2667C43.3439 39.9 41.7763 40.1923 39.8289 40.1923C33.5589 40.1923 31.2076 35.4424 31.2076 30.1565C31.2076 24.4078 34.1052 19.7066 39.2114 19.7066C44.3889 19.7066 46.194 24.1642 46.194 27.7937C46.194 28.963 46.1227 29.913 46.004 30.3758C45.9565 30.5707 45.8852 30.6438 45.6952 30.6925C45.2201 30.7656 43.8189 30.8629 41.7289 30.8629H35.5063V30.814ZM22.7764 28.3295C22.1113 25.6256 20.4963 19.7307 19.9025 16.8807H19.855C19.3563 19.7307 18.05 24.5537 17.0763 28.3295H22.7764ZM16.1024 32.2757L14.2263 39.559C14.1788 39.7537 14.1075 39.8269 13.87 39.8269H10.3787C10.1412 39.8269 10.0936 39.7538 10.1412 39.4616L16.8862 15.2731C17.0049 14.8347 17.0762 14.4936 17.1236 13.2757C17.1236 13.1052 17.1949 13.0321 17.3136 13.0321H22.3011C22.4674 13.0321 22.5386 13.0809 22.5862 13.2757L30.1386 39.5103C30.1861 39.705 30.1386 39.8269 29.9487 39.8269H26.0299C25.84 39.8269 25.7211 39.7538 25.6737 39.5834L23.7261 32.2758L16.1024 32.2757Z" fill="#D8A1FF"/>
<defs>
<radialGradient id="paint0_radial" cx="0" cy="0" r="1" gradientUnits="userSpaceOnUse" gradientTransform="translate(19.5617 14.0486) scale(39.8075 39.6215)">
<stop stop-color="#442F55" stop-opacity="0.98"/>
<stop offset="1" stop-color="#12002C"/>
</radialGradient>
</defs>
</svg>
