<svg width="56" height="65" viewBox="0 0 56 65" fill="none" xmlns="http://www.w3.org/2000/svg">
<path d="M0.0129031 32.354C0.0129031 27.1968 0.020645 22.0395 0 16.8823C0 16.3409 0.139354 16.0223 0.637413 15.7374C9.55862 10.5697 18.4669 5.39176 27.3597 0.200827C27.8501 -0.0841048 28.1907 -0.0556116 28.6604 0.221549C37.5403 5.39953 46.4279 10.5646 55.3285 15.7166C55.8395 16.0093 56.0072 16.3279 55.9995 16.9108C55.9788 27.2253 55.9788 37.5502 55.9995 47.8647C55.9995 48.406 55.8549 48.7247 55.362 49.0096C46.446 54.1668 37.5403 59.3526 28.6371 64.5384C28.1933 64.7948 27.8707 64.8362 27.3984 64.5591C18.5005 59.3655 9.59216 54.1876 0.670961 49.0303C0.159998 48.7324 0 48.4112 0 47.8362C0.0283868 42.6763 0.0129031 37.5139 0.0129031 32.354ZM54.5879 32.3825C54.5879 27.4532 54.5801 22.5239 54.5956 17.5972C54.5956 17.1309 54.4846 16.8538 54.0562 16.6051C45.535 11.6706 37.0293 6.72058 28.521 1.76277C28.1262 1.53482 27.8423 1.54778 27.4552 1.77572C18.9572 6.73094 10.4438 11.6758 1.9303 16.6103C1.53547 16.8382 1.40386 17.0895 1.40386 17.5402C1.41676 27.4195 1.41676 37.2963 1.40386 47.1757C1.40386 47.6678 1.57676 47.9191 1.97676 48.147C10.4567 53.0608 18.9288 57.9849 27.3855 62.9194C27.8501 63.1914 28.1752 63.1759 28.6294 62.9116C37.0732 57.9823 45.5247 53.0737 53.984 48.1729C54.4485 47.9009 54.6059 47.6108 54.6008 47.0824C54.5827 42.192 54.5879 37.2834 54.5879 32.3825Z" fill="black"/>
<path d="M54.588 32.3824C54.588 37.291 54.5802 42.1918 54.6009 47.1004C54.6009 47.634 54.4486 47.9267 53.9841 48.1909C45.5248 53.084 37.0681 58.0003 28.6295 62.9219C28.1727 63.1861 27.8476 63.199 27.3857 62.9297C18.9212 57.9952 10.4491 53.071 1.96914 48.1572C1.56914 47.9215 1.39624 47.6703 1.39624 47.1859C1.40914 37.3065 1.40914 27.4298 1.39624 17.5504C1.39624 17.0997 1.52785 16.8485 1.92269 16.6205C10.4439 11.6783 18.9574 6.73599 27.4631 1.77818C27.8502 1.55024 28.1263 1.53469 28.5289 1.76523C37.0346 6.72304 45.5429 11.6705 54.0641 16.6076C54.4925 16.8562 54.6034 17.1412 54.6034 17.5996C54.588 22.5238 54.588 27.4531 54.588 32.3824Z" fill="white"/>
<path d="M28.0849 60.0105C28.0771 53.0971 28.0642 46.181 28.0849 39.2675C28.0926 37.2134 28.1184 35.1438 28.3326 33.1027C28.3946 32.5121 29.0371 31.8127 29.6049 31.4785C34.1829 28.7769 38.8022 26.1529 43.4086 23.4953C46.2241 21.8712 49.0395 20.2393 51.8524 18.6074C51.873 23.0705 51.9014 27.5284 51.9143 31.9914C51.9272 36.5244 51.9221 41.0574 51.9014 45.5904C51.9014 45.8831 51.7492 46.3131 51.5272 46.4374C43.8086 50.9575 36.0693 55.449 28.3378 59.9406C28.2733 59.9898 28.1752 59.9898 28.0849 60.0105Z" fill="#D96629"/>
<path d="M28.085 60.0105C20.2502 55.4775 12.4129 50.9445 4.59102 46.3907C4.41811 46.2871 4.29941 45.94 4.29941 45.7095C4.2865 36.8455 4.2865 27.9868 4.30715 19.1228C4.30715 18.8379 4.54973 18.4286 4.79747 18.2835C12.3974 13.8412 20.0051 9.41958 27.6282 5.00315C27.8424 4.87881 28.2295 4.80888 28.4179 4.91249C36.1855 9.39627 43.93 13.9034 51.6847 18.4079C51.7596 18.4493 51.8035 18.54 51.8577 18.6099C49.0422 20.2418 46.2267 21.8737 43.4139 23.4978C38.8075 26.1502 34.1881 28.7742 29.6101 31.481C29.0424 31.8152 29.4992 33.1958 29.4372 33.7864C29.223 35.8275 28.0953 37.2159 28.0876 39.27C28.0643 46.1835 28.085 53.097 28.085 60.0105Z" fill="#4E2111"/>
<path d="M20.4437 21.0104C21.2049 21.0104 21.9662 21.0026 22.7249 21.0104C23.4862 21.0233 23.6591 21.1347 23.9017 21.8367C25.1533 25.5304 26.3972 29.2293 27.6436 32.9309C27.7675 33.3065 27.8991 33.6743 28.0307 34.0421C28.0513 34.1043 28.1004 34.1613 28.1288 34.2156C28.17 34.1613 28.2268 34.112 28.2475 34.0499C28.3662 33.7235 28.4823 33.3971 28.5933 33.0707C29.8449 29.3511 31.0887 25.6289 32.3481 21.9092C32.6319 21.0751 32.7429 21.013 33.5919 21.0078C35.0655 21 36.5442 21 38.0177 21.0078C38.6267 21.0078 38.6603 21.0699 38.717 21.6813C38.8899 23.7975 39.0757 25.9164 39.2435 28.0326C39.4035 30.0116 39.5351 31.9958 39.6925 33.9747C39.8525 35.9537 40.0306 37.9327 40.1983 39.9091C40.2964 41.0618 40.3841 42.2144 40.4899 43.3594C40.5235 43.7272 40.3377 43.88 40.0125 43.88C38.539 43.88 37.0603 43.8878 35.5867 43.8515C35.0474 43.8386 34.9364 43.7065 34.8874 43.1081C34.8126 42.2818 34.7764 41.4477 34.7274 40.6162C34.6242 38.9351 34.5055 37.2489 34.4306 35.5704C34.3609 33.9333 34.3326 32.2937 34.2913 30.6488C34.2913 30.5582 34.3042 30.4623 34.2835 30.3717C34.2629 30.2965 34.201 30.2396 34.1519 30.1696C34.1029 30.2111 34.028 30.2396 33.9997 30.294C33.9016 30.5012 33.819 30.7162 33.7364 30.9338C32.761 33.7028 31.7932 36.4666 30.8178 39.2356C30.5261 40.0619 30.3894 40.1448 29.5042 40.1526H26.5984C25.8655 40.1448 25.7959 40.1189 25.5404 39.4169C24.6062 36.8629 23.6927 34.2934 22.7817 31.7264C22.6294 31.2886 22.4643 30.8586 22.2965 30.4287C22.263 30.338 22.1778 30.2681 22.1159 30.1929C22.103 30.2836 22.0824 30.3743 22.0746 30.4649C22.0333 31.6461 22.0256 32.8247 21.9559 33.9981C21.8527 35.7957 21.7004 37.5934 21.5766 39.391C21.5069 40.4246 21.4578 41.4659 21.3959 42.5071C21.383 42.7351 21.3675 42.9656 21.3546 43.2013C21.3262 43.6469 21.1069 43.8619 20.6501 43.8619C19.6127 43.8619 18.5753 43.8748 17.5379 43.8826C17.1018 43.8826 16.6605 43.8826 16.2243 43.8748C15.8785 43.867 15.7392 43.7013 15.7753 43.3464C15.9895 40.9089 16.196 38.4741 16.3973 36.0288C16.5572 34.0706 16.6889 32.1123 16.8463 30.1567C17.0063 28.1777 17.1843 26.1987 17.3521 24.2223C17.4218 23.396 17.4837 22.562 17.5327 21.7382C17.574 21.0311 17.5611 21.0311 18.294 21.0233C19.0114 21.0104 19.7237 21.0104 20.4437 21.0104Z" fill="white"/>
</svg>
