<svg width="47" height="59" viewBox="0 0 47 59" fill="none" xmlns="http://www.w3.org/2000/svg">
<path d="M19.9575 19.307L19.8784 19.2784V11.8683L19.9603 11.7939L19.9886 11.748L46.9999 29.4944L19.9547 19.3156L19.9575 19.307ZM19.9575 39.6933L19.9547 39.6847L46.9999 29.5059L19.9858 47.2523L19.9603 47.2122H19.8784V39.7219L19.9575 39.6933Z" fill="#001717"/>
<path d="M32.4125 0L47 29.4943L19.9887 11.7479L19.9548 11.725L19.9605 11.7107L32.3249 0.0830341L32.4125 0ZM47 29.5057L32.4125 59L32.3305 58.9198L19.9605 47.2893L19.9548 47.275L19.9859 47.2521L47 29.5057Z" fill="#015051"/>
<path d="M19.9548 11.7247L19.9887 11.7476L19.9605 11.7934H0.177966L0 11.7247L4.94068 0.0712891L4.9661 0.082742H32.3249L19.9605 11.7104L19.9548 11.7247ZM19.9605 11.7934L19.8785 11.8679V11.7934H19.9605ZM19.9605 47.2117L19.9859 47.2518L19.9548 47.2747L19.9605 47.289L32.3305 58.9195H4.9661L4.94068 58.931L0 47.2747L0.166667 47.2117H19.791L19.8785 47.2948V47.2117H19.9605Z" fill="#016B6B"/>
<path d="M19.9547 19.3155L46.9999 29.4944V29.5058L19.9547 39.6846L19.9575 39.6932L19.8784 39.7219V19.2783L19.9575 19.307L19.9547 19.3155Z" fill="#015051"/>
<path d="M19.8786 47.2119V47.2949L19.791 47.2119H19.8786Z" fill="#016B6B"/>
<path d="M19.8785 39.7217V47.2119H19.7909L14.1638 41.892L19.8785 39.7217Z" fill="#002122"/>
<path d="M19.8785 39.6965V39.7223L14.1638 41.8926L1.18921 29.5177V29.4833L14.1638 17.1084L19.8785 19.2787V29.5234V39.6965Z" fill="#016B6B"/>
<path d="M19.8785 11.8682V19.2782L14.1638 17.1079L19.8785 11.8682Z" fill="#002122"/>
<path d="M19.8786 11.7939V11.8684L14.1639 17.1081L0.178047 11.7939H19.8786ZM19.791 47.2123H0.166748L14.1639 41.8924L19.791 47.2123Z" fill="#013535"/>
</svg>
