<svg width="56" height="56" viewBox="0 0 56 56" fill="none" xmlns="http://www.w3.org/2000/svg">
<path d="M2.33325 3.08984H53.6665V52.9091H2.33325V3.08984Z" fill="url(#paint0_radial)"/>
<path d="M2.3333 3.08969H53.6666V52.9089H2.3333V3.08969ZM0 55.237H55.9999V0.761719H0V55.237ZM33.5999 23.7624C33.5999 23.4829 33.5999 22.8079 33.4833 21.5041C33.4833 21.3179 33.5066 21.2714 33.6699 21.2015C35.0932 20.6195 38.4299 19.5952 42.2099 19.5952C42.3965 19.5952 42.4898 19.6418 42.4898 19.828V23.2036C42.4898 23.3898 42.4198 23.4364 42.2332 23.4364C40.7631 23.3666 38.6399 23.5528 37.8231 23.9019V38.5684C37.8231 38.7545 37.7532 38.8477 37.5431 38.8477H33.8799C33.6932 38.8477 33.5998 38.7779 33.5998 38.5684V23.7624H33.5999ZM18.6667 25.8808C19.2032 25.9274 19.6233 25.9274 20.5567 25.9274C23.2867 25.9274 25.8534 24.9729 25.8534 21.2715C25.8534 18.3149 24.0333 16.8249 20.9066 16.8249C19.9733 16.8249 19.0867 16.8715 18.6667 16.8947V25.8808ZM14.5367 13.5191C14.5367 13.3562 14.5833 13.2397 14.77 13.2397C16.2633 13.1699 18.4566 13.1233 20.7666 13.1233C27.2299 13.1233 30.0533 16.6619 30.0533 21.2015C30.0533 27.1146 25.76 29.6522 20.4867 29.6522C19.6 29.6522 19.2967 29.6056 18.6667 29.6056V38.5451C18.6667 38.7314 18.5967 38.8245 18.3866 38.8245H14.7933C14.6066 38.8245 14.5132 38.7546 14.5132 38.5451V13.5191H14.5367Z" fill="#E579FF"/>
<defs>
<radialGradient id="paint0_radial" cx="0" cy="0" r="1" gradientUnits="userSpaceOnUse" gradientTransform="translate(19.2399 14.2544) scale(39.0133 37.6857)">
<stop stop-color="#4B2D4F" stop-opacity="0.98"/>
<stop offset="1" stop-color="#180024"/>
</radialGradient>
</defs>
</svg>
