<svg width="28" height="15" viewBox="0 0 28 15" fill="none" xmlns="http://www.w3.org/2000/svg">
<path d="M27.9364 13.8429C27.3768 12.2143 23.4125 8.82857 23.2259 8.61429C22.7596 8.1 22.8995 7.84286 23.2259 7.37143C23.2259 7.37143 26.957 2.61429 27.3301 1.02857C27.5167 0.428572 27.3301 0 26.3974 0H23.3192C22.5264 0 22.1999 0.385714 21.9667 0.771429C21.9667 0.771429 20.4276 4.2 18.189 6.42857C17.4894 7.07143 17.163 7.28571 16.7432 7.28571C16.5567 7.28571 16.2768 7.07143 16.2768 6.51429V1.02857C16.2768 0.342857 16.0436 0 15.3907 0H10.6802C10.2138 0 9.88735 0.342857 9.88735 0.642857C9.88735 1.32857 11.0067 1.45714 11.1 3.34286V7.41429C11.1 8.31429 10.9134 8.48571 10.5403 8.48571C9.51424 8.48571 6.99577 5.05714 5.4567 1.11429C5.17687 0.3 4.89704 0 4.10418 0H1.07268C0.186554 0 0 0.385714 0 0.771429C0 1.5 1.02605 5.14286 4.8504 9.94286C7.36888 13.2 10.96 15 14.1781 15C16.1369 15 16.3701 14.6143 16.3701 13.9286C16.3701 10.8 16.1835 10.5 17.1629 10.5C17.6293 10.5 18.3755 10.7143 20.1944 12.3C22.2932 14.1429 22.6196 15 23.7856 15H26.8637C27.7499 15 28.1696 14.6143 27.9364 13.8429Z" fill="#9C9C9F"/>
</svg>
