<svg width="23" height="23" viewBox="0 0 23 23" fill="none" xmlns="http://www.w3.org/2000/svg">
<path d="M23 11.5C23 5.15049 17.8495 0 11.5 0C8.45344 0 5.67836 1.18393 3.61967 3.12197C3.59705 3.14459 3.56689 3.16721 3.54426 3.18984C3.23508 3.48393 2.94852 3.79311 2.66951 4.12492C2.65443 4.14754 2.6318 4.17016 2.61672 4.18525C0.980328 6.17607 0 8.72492 0 11.5C0 11.5905 0 11.681 0 11.7715C0 11.7941 0 11.8243 0 11.8469C0 11.9148 0.00754098 11.9751 0.00754098 12.043C0.00754098 12.0731 0.00754098 12.0957 0.015082 12.1259C0.022623 12.2013 0.022623 12.2767 0.0301639 12.3446C0.0301639 12.3597 0.0301639 12.3748 0.0301639 12.3898C0.0377049 12.4803 0.0452459 12.5633 0.0527869 12.6538C0.0527869 12.6764 0.0603279 12.699 0.0603279 12.7292C0.0678689 12.7895 0.0754098 12.8574 0.0829508 12.9177C0.0829508 12.9479 0.0904918 12.978 0.0904918 13.0082C0.0980328 13.0685 0.105574 13.1364 0.113115 13.1967C0.113115 13.2193 0.120656 13.2495 0.120656 13.2721C0.135738 13.3551 0.15082 13.438 0.165902 13.521C0.173443 13.5436 0.173443 13.5662 0.180984 13.5889C0.188525 13.6492 0.203607 13.7095 0.218689 13.7698C0.22623 13.8 0.233771 13.8302 0.241311 13.8679C0.256393 13.9207 0.263934 13.981 0.279016 14.0338C0.286557 14.0639 0.294098 14.0941 0.301639 14.1243C0.316721 14.1997 0.339344 14.2751 0.354426 14.3505C0.361967 14.3731 0.369508 14.4033 0.377049 14.4259C0.392131 14.4862 0.407213 14.5466 0.422295 14.6069C0.429836 14.6446 0.444918 14.6748 0.452459 14.7125C0.467541 14.7577 0.482623 14.8105 0.497705 14.8557C0.505246 14.8934 0.520328 14.9236 0.527869 14.9613C0.542951 15.0141 0.558033 15.0593 0.580656 15.1121C0.595738 15.1574 0.61082 15.1951 0.625902 15.2403C0.648525 15.3007 0.671148 15.361 0.68623 15.4213C0.701312 15.459 0.716393 15.4967 0.723934 15.5344C0.739016 15.5721 0.754098 15.6174 0.76918 15.6551C0.784262 15.6928 0.799344 15.7305 0.814426 15.7682C0.829508 15.8059 0.84459 15.8436 0.859672 15.8889C0.874754 15.9266 0.889836 15.9643 0.904918 16.002C0.935082 16.0698 0.965246 16.1377 0.99541 16.2056C1.01049 16.2433 1.03311 16.2885 1.0482 16.3262C1.06328 16.3639 1.07836 16.3941 1.09344 16.4318C1.11607 16.477 1.13115 16.5148 1.15377 16.5525C1.16885 16.5826 1.18393 16.6128 1.19902 16.6505C1.22164 16.6957 1.24426 16.7334 1.25934 16.7787C1.27443 16.8013 1.28951 16.8315 1.29705 16.8541C1.3423 16.937 1.38754 17.02 1.42525 17.0954C1.44033 17.118 1.45541 17.1482 1.47049 17.1708C1.49311 17.2161 1.52328 17.2538 1.5459 17.299C1.56098 17.3216 1.57607 17.3518 1.59115 17.3744C1.61377 17.4197 1.64393 17.4649 1.66656 17.5026C1.68164 17.5252 1.68918 17.5403 1.70426 17.563C1.75705 17.6534 1.81738 17.7439 1.8777 17.8269C1.88525 17.842 1.90033 17.857 1.90787 17.8721C1.93803 17.9174 1.9682 17.9626 1.99836 18.0079C2.01344 18.0305 2.02852 18.0531 2.04361 18.0757C2.07377 18.121 2.10393 18.1662 2.1341 18.2039C2.14918 18.219 2.16426 18.2416 2.1718 18.2567C2.27738 18.4 2.39049 18.5433 2.50361 18.6866C2.51869 18.7016 2.53377 18.7243 2.54885 18.7393C2.58656 18.7846 2.61672 18.8223 2.65443 18.8675C2.66951 18.8826 2.68459 18.9052 2.69967 18.9203C2.82033 19.0561 2.94098 19.1918 3.06164 19.3275C3.07672 19.3426 3.0918 19.3577 3.09934 19.3728C3.13705 19.4105 3.17475 19.4557 3.21246 19.4934C3.22754 19.5085 3.24262 19.5311 3.26525 19.5462C3.30295 19.5839 3.34066 19.6292 3.3859 19.6669C3.39344 19.6744 3.40098 19.682 3.41607 19.6895C3.49902 19.7725 3.58197 19.8479 3.66492 19.9308C3.68 19.9459 3.68754 19.9534 3.70262 19.9685C3.74033 20.0062 3.78557 20.0439 3.82328 20.0741C3.8459 20.0892 3.86098 20.1118 3.88361 20.1269C3.92131 20.1646 3.96656 20.1948 4.00426 20.2325C4.01934 20.2475 4.04197 20.2626 4.05705 20.2777C4.14 20.3456 4.23049 20.421 4.31344 20.4889C4.32098 20.4964 4.33607 20.5039 4.34361 20.5115C4.38131 20.5416 4.42656 20.5718 4.46426 20.602C4.48689 20.6171 4.50951 20.6397 4.53213 20.6548C4.56984 20.6849 4.60754 20.7151 4.65279 20.7452C4.67541 20.7603 4.70557 20.7829 4.7282 20.798C4.7659 20.8282 4.80361 20.8584 4.84885 20.881C4.93934 20.9489 5.03738 21.0092 5.13541 21.077C5.16557 21.0997 5.19574 21.1148 5.2259 21.1374C5.26361 21.16 5.30131 21.1826 5.33902 21.2128C5.36918 21.2354 5.40689 21.2505 5.43705 21.2731C5.47475 21.2957 5.51246 21.3184 5.54262 21.341C5.58787 21.3711 5.63312 21.3938 5.67836 21.4164C5.73115 21.4466 5.77639 21.4767 5.82918 21.4993C5.87443 21.522 5.91213 21.5446 5.95738 21.5672C5.98754 21.5823 6.02525 21.6049 6.05541 21.62C6.09311 21.6426 6.13836 21.6652 6.17607 21.6879C6.20623 21.703 6.24393 21.718 6.2741 21.7407C6.32689 21.7708 6.37967 21.7934 6.43246 21.8161C6.45508 21.8311 6.48525 21.8387 6.50787 21.8538C6.57574 21.8839 6.64361 21.9216 6.71148 21.9518C6.74164 21.9669 6.76426 21.9744 6.79443 21.9895C6.84721 22.0121 6.9 22.0348 6.94525 22.0574C6.97541 22.0725 6.99803 22.08 7.0282 22.0951C7.08852 22.1177 7.14885 22.1479 7.20918 22.1705C7.22426 22.178 7.24689 22.1856 7.26197 22.1931C7.26951 22.1931 7.26951 22.1931 7.27705 22.2007C7.17902 21.2882 7.08852 19.8931 7.31475 18.8977C7.5259 18.0003 8.66459 13.1816 8.66459 13.1816C8.66459 13.1816 8.31771 12.4954 8.31771 11.4774C8.31771 9.87869 9.24525 8.68721 10.399 8.68721C11.3793 8.68721 11.8544 9.42623 11.8544 10.3085C11.8544 11.2964 11.2285 12.7669 10.9043 14.1393C10.6328 15.2856 11.4774 16.2207 12.6085 16.2207C14.6521 16.2207 16.2207 14.0639 16.2207 10.957C16.2207 8.20459 14.2449 6.28164 11.417 6.28164C8.14426 6.28164 6.22131 8.73246 6.22131 11.2738C6.22131 12.2616 6.59836 13.3249 7.07344 13.898C7.16393 14.0111 7.17902 14.1092 7.15639 14.2298C7.0659 14.5918 6.87738 15.3761 6.83967 15.5344C6.78689 15.7456 6.67377 15.7908 6.45508 15.6852C5.02229 15.0141 4.11738 12.9177 4.11738 11.2285C4.11738 7.60131 6.75672 4.2682 11.7187 4.2682C15.7079 4.2682 18.8072 7.11115 18.8072 10.9118C18.8072 14.8784 16.3111 18.0607 12.8423 18.0607C11.6734 18.0607 10.58 17.4574 10.203 16.741C10.203 16.741 9.62984 18.9354 9.48656 19.4784C9.23016 20.4738 8.52885 21.7256 8.05377 22.4948C8.18197 22.5325 8.30262 22.5702 8.43082 22.6003C8.4459 22.6079 8.46852 22.6079 8.48361 22.6154C8.74 22.6833 8.99639 22.7436 9.25279 22.7889C9.27541 22.7964 9.29803 22.7964 9.32066 22.8039C9.57705 22.8492 9.83344 22.8944 10.0974 22.9246C10.1275 22.9246 10.1502 22.9321 10.1803 22.9321C10.4367 22.9623 10.7007 22.9774 10.9646 22.9925C10.9948 22.9925 11.0249 22.9925 11.0626 22.9925C11.1908 23 11.3266 23 11.4548 23C13.1666 23 14.7954 22.623 16.2584 21.9518C20.2551 20.1269 23 16.1377 23 11.5Z" fill="#9C9C9F"/>
</svg>
