<svg width="14" height="24" viewBox="0 0 14 24" fill="none" xmlns="http://www.w3.org/2000/svg">
<path d="M5.84963 16.4147C4.04302 16.2263 2.4141 15.7813 1.01949 14.6906C0.846442 14.5549 0.667783 14.424 0.50987 14.2725C-0.100549 13.6862 -0.162055 13.0148 0.320959 12.3228C0.73417 11.7307 1.42782 11.5723 2.1488 11.9123C2.28841 11.9782 2.42142 12.0605 2.54883 12.1488C5.14793 13.9347 8.71842 13.984 11.3273 12.2291C11.5858 12.0309 11.862 11.8694 12.1823 11.7869C12.8049 11.627 13.3855 11.8557 13.7197 12.4005C14.1014 13.0226 14.0965 13.6298 13.6262 14.1129C12.9047 14.8534 12.037 15.3891 11.073 15.763C10.1614 16.1164 9.16287 16.2943 8.17464 16.4125C8.32376 16.5748 8.39405 16.6546 8.48729 16.7483C9.82918 18.0966 11.1769 19.4392 12.5144 20.7916C12.9701 21.2524 13.0653 21.8237 12.8144 22.3597C12.5401 22.9455 11.926 23.3309 11.3239 23.2896C10.9424 23.2633 10.6449 23.0734 10.3805 22.8071C9.36789 21.7881 8.33621 20.7879 7.34407 19.7496C7.05533 19.4477 6.91646 19.5048 6.66165 19.767C5.6429 20.8157 4.60756 21.8484 3.56611 22.8752C3.09847 23.3362 2.54199 23.4192 1.99967 23.1559C1.42318 22.8764 1.05634 22.288 1.08465 21.6966C1.10418 21.2966 1.3009 20.991 1.57548 20.7169C2.90346 19.3909 4.22778 18.0614 5.55259 16.7332C5.64022 16.6448 5.72198 16.5511 5.84963 16.4147Z" fill="#9C9C9F"/>
<path d="M6.95018 11.7957C3.72724 11.7847 1.08446 9.11285 1.10325 5.88479C1.1218 2.62109 3.76629 -0.00900739 7.02097 2.31857e-05C10.2822 0.00880969 12.8999 2.67674 12.8835 5.97436C12.8669 9.19584 10.2058 11.8069 6.95018 11.7957ZM9.87927 5.8926C9.87365 4.28979 8.59717 3.0138 6.99753 3.01233C5.38448 3.01062 4.09652 4.30981 4.10897 5.92726C4.12093 7.52396 5.4084 8.79093 7.01242 8.78507C8.61157 8.77945 9.88463 7.49516 9.87927 5.8926Z" fill="#9C9C9F"/>
</svg>
