<svg width="24" height="23" viewBox="0 0 24 23" fill="none" xmlns="http://www.w3.org/2000/svg">
<path d="M11.8254 0C6.88566 0 3.49272 0 1.74636 1.6736C0 3.34719 0 6.79002 0 11.3326C5.28898 11.1892 7.73389 11.0457 9.67983 9.22869C11.526 7.41164 11.6757 5.06861 11.8254 0ZM1.74636 21.2786C0 19.605 0 16.1622 0 11.6195C5.28898 11.763 7.73389 11.9064 9.67983 13.7235C11.5759 15.5884 11.7256 17.8836 11.8753 23C6.88565 22.9522 3.49272 22.9522 1.74636 21.2786ZM12.1247 23C12.2744 17.9314 12.4241 15.5405 14.3202 13.6757C16.2661 11.8586 18.6611 11.7152 24 11.5717C24 16.1622 24 19.5572 22.2536 21.2786C20.4574 22.9522 17.0644 23 12.1247 23ZM12.1247 0C12.2744 5.06861 12.4241 7.41164 14.3202 9.27651C16.2661 11.0936 18.6611 11.237 24 11.3805C24 6.79002 24 3.39501 22.2536 1.6736C20.4574 0 17.0644 0 12.1247 0Z" fill="#9C9C9F"/>
</svg>
