<svg width="20" height="23" viewBox="0 0 20 23" fill="none" xmlns="http://www.w3.org/2000/svg">
<path d="M18.8508 5.38815C17.7115 5.14503 16.7019 4.54855 15.9433 3.71884C15.1551 2.85521 14.6362 1.73998 14.5248 0.506023V0H13.4349H13.1895H10.5739V15.7235C10.5668 17.5567 9.08206 19.0409 7.25183 19.0409C6.17315 19.0409 5.21433 18.525 4.6066 17.7278C4.16667 17.1482 3.92837 16.4401 3.92837 15.7121C3.92837 13.8746 5.41596 12.3834 7.25042 12.3834C7.59165 12.3834 7.93288 12.4357 8.2586 12.5389V8.51475C7.87789 8.46245 7.49295 8.43984 7.10942 8.44832C3.16977 8.5303 0 11.7558 0 15.7235C0 17.7037 0.789622 19.4988 2.06994 20.8105C3.38832 22.1618 5.22702 23 7.2617 23C11.2733 23 14.5248 19.742 14.5248 15.7235V7.6907C16.0674 8.79603 17.9583 9.44623 20 9.44623V5.50971C19.6136 5.50971 19.2287 5.46872 18.8508 5.38815Z" fill="#9C9C9F"/>
</svg>
