<svg width="24" height="23" viewBox="0 0 24 23" fill="none" xmlns="http://www.w3.org/2000/svg">
<path d="M17.2903 23C16.0516 23 14.8129 22.6538 13.7806 22.0602H13.729C13.1613 22.1591 12.5935 22.2086 12.0258 22.2086C5.88387 22.2086 0.877419 17.4108 0.877419 11.5247C0.877419 10.9806 0.929032 10.4366 0.980645 9.89247V9.84301C0.36129 8.85376 0 7.66667 0 6.47957C0 2.91828 3.04516 0 6.76129 0C8 0 9.23871 0.346237 10.271 0.939785H10.3226C10.8903 0.84086 11.4581 0.84086 12.0258 0.791398C18.4774 0.692473 23.1742 5.58925 23.1742 11.4753C23.1742 12.0194 23.1226 12.5634 23.0194 13.1075V13.157C23.6387 14.1462 24 15.3333 24 16.5204C24 20.1312 21.0065 23 17.2903 23ZM7.43226 13.2559C7.01935 13.2559 6.70968 13.3548 6.45161 13.6022C6.19355 13.8495 6.09032 14.0968 6.09032 14.443C6.09032 14.9871 6.29677 15.5806 6.70968 16.1742C7.12258 16.7677 7.69032 17.2624 8.36129 17.6086C9.29032 18.1032 10.529 18.3505 12.0258 18.3505C13.2645 18.3505 14.3484 18.1527 15.2258 17.8065C16.1032 17.4602 16.8258 16.9161 17.2903 16.3226C17.7548 15.6796 18.0129 14.9376 18.0129 14.1462C18.0129 13.4538 17.8581 12.9097 17.6 12.4645C17.3419 12.0194 16.9806 11.6237 16.4645 11.3269C16 11.0301 15.3806 10.7828 14.7097 10.5355C14.0387 10.3376 13.2645 10.1398 12.4387 9.94194C11.7161 9.79355 11.2516 9.64516 10.9935 9.5957C10.6839 9.49677 10.4258 9.39785 10.1161 9.24946C9.80645 9.10108 9.6 8.95269 9.44516 8.75484C9.29032 8.55699 9.1871 8.35914 9.1871 8.06237C9.1871 7.6172 9.44516 7.27097 9.90968 6.97419C10.3742 6.67742 10.9935 6.52903 11.7677 6.52903C12.5935 6.52903 13.2129 6.67742 13.5742 6.92473C13.9355 7.22151 14.2968 7.6172 14.5548 8.11183C14.7613 8.45806 14.9677 8.70538 15.1226 8.85376C15.2774 9.00215 15.5871 9.10108 15.8968 9.10108C16.2581 9.10108 16.6194 8.95269 16.8774 8.70538C17.1355 8.45807 17.2387 8.16129 17.2387 7.81505C17.2387 7.46882 17.1355 7.12258 16.929 6.72688C16.7226 6.38065 16.4129 5.98495 15.9484 5.68817C15.5355 5.34194 14.9677 5.09462 14.2968 4.89677C13.6258 4.69892 12.8516 4.6 11.9226 4.6C10.7871 4.6 9.75484 4.74839 8.92903 5.04516C8.10322 5.34194 7.43226 5.7871 6.96774 6.38065C6.50323 6.92473 6.29677 7.6172 6.29677 8.30968C6.29677 9.05161 6.50323 9.74409 6.91613 10.2387C7.32903 10.7333 7.89677 11.1785 8.61936 11.4753C9.34194 11.772 10.271 12.0194 11.3032 12.2667C12.0774 12.4151 12.7484 12.5634 13.2129 12.7118C13.6774 12.8602 14.0903 13.0581 14.4 13.3548C14.7097 13.6516 14.8645 13.9978 14.8645 14.3935C14.8645 14.9376 14.6065 15.3828 14.0387 15.7785C13.471 16.1247 12.7484 16.3226 11.871 16.3226C11.2 16.3226 10.6839 16.2237 10.3226 16.0258C9.90968 15.828 9.6 15.6301 9.39355 15.3333C9.1871 15.0366 8.98065 14.6903 8.77419 14.2946C8.61935 13.9484 8.4129 13.6516 8.20645 13.5032C8.05161 13.3548 7.74194 13.2559 7.43226 13.2559Z" fill="#9C9C9F"/>
</svg>
