<svg width="22" height="22" viewBox="0 0 22 22" fill="none" xmlns="http://www.w3.org/2000/svg">
<path fill-rule="evenodd" clip-rule="evenodd" d="M11 1.97264C13.9422 1.97264 14.2766 1.97264 15.4468 2.03951C18.4225 2.17325 19.8267 3.57751 19.9605 6.55319C19.9939 7.7234 20.0274 8.05775 20.0274 11C20.0274 13.9422 20.0274 14.2766 19.9605 15.4468C19.8267 18.3891 18.4225 19.8267 15.4468 19.9605C14.2766 19.9939 13.9422 20.0274 11 20.0274C8.05775 20.0274 7.7234 20.0274 6.55319 19.9605C3.57751 19.7933 2.17325 18.3891 2.03951 15.4468C2.00608 14.2766 1.97264 13.9422 1.97264 11C1.97264 8.05775 1.97264 7.7234 2.03951 6.55319C2.17325 3.61094 3.57751 2.17325 6.55319 2.03951C7.7234 2.00608 8.05775 1.97264 11 1.97264ZM11 0C8.02432 0 7.6231 0 6.45289 0.0668693C2.47416 0.234043 0.267477 2.47416 0.0668693 6.45289C0 7.65653 0 8.02432 0 11C0 13.9757 0 14.3769 0.0668693 15.5137C0.234043 19.5258 2.47416 21.7325 6.45289 21.9331C7.6231 21.9666 7.99088 22 11 22C14.0091 22 14.3769 22 15.5471 21.9331C19.5258 21.766 21.766 19.5258 21.9331 15.5471C21.9666 14.3769 22 14.0091 22 11C22 7.99088 22 7.6231 21.9331 6.45289C21.766 2.47416 19.5258 0.267477 15.5137 0.0668693C14.3435 0 13.9757 0 11 0ZM11 5.34954C7.89058 5.34954 5.34954 7.85714 5.34954 11C5.34954 14.1094 7.85714 16.6505 11 16.6505C14.1094 16.6505 16.6505 14.1429 16.6505 11C16.6505 7.89058 14.1094 5.34954 11 5.34954ZM11 14.6778C8.96049 14.6778 7.32219 13.0395 7.32219 11C7.32219 8.96049 8.96049 7.32219 11 7.32219C13.0395 7.32219 14.6778 8.96049 14.6778 11C14.6778 13.0395 13.0061 14.6778 11 14.6778ZM16.8845 3.81155C16.1489 3.81155 15.5471 4.41337 15.5471 5.14894C15.5471 5.8845 16.1489 6.48632 16.8845 6.48632C17.6201 6.48632 18.2219 5.8845 18.2219 5.14894C18.2219 4.41337 17.5866 3.81155 16.8845 3.81155Z" fill="#9C9C9F"/>
</svg>
