<svg width="22" height="18" viewBox="0 0 22 18" fill="none" xmlns="http://www.w3.org/2000/svg">
<path d="M0 15.9793C2.43941 16.2012 4.6218 15.5921 6.59947 14.1126C6.29454 14.043 6.01575 14.043 5.75003 13.9777C4.19491 13.6078 3.11896 12.6723 2.48732 11.2146C2.45683 11.1406 2.37842 11.0493 2.44812 10.9753C2.50039 10.9187 2.60058 10.9666 2.67464 10.9753C3.2235 11.0319 3.77237 11.0145 4.31252 10.8883C4.32124 10.7925 4.25154 10.8012 4.19926 10.7838C2.86195 10.427 1.89054 9.63073 1.26326 8.3993C0.975763 7.83362 0.818944 7.24184 0.801519 6.60655C0.792807 6.35852 0.805875 6.35417 1.03675 6.46295C1.58561 6.72403 2.16062 6.87198 2.81839 6.90244C2.51782 6.65876 2.24774 6.44555 2.01687 6.18882C1.31554 5.40993 0.92349 4.5005 0.840724 3.45183C0.775383 2.59897 0.953982 1.80267 1.32425 1.03684C1.40702 0.867135 1.48107 0.880189 1.58561 1.00638C2.31308 1.89405 3.16252 2.64683 4.09907 3.29953C4.79605 3.78688 5.53658 4.19156 6.31632 4.53531C7.34436 4.9835 8.4116 5.28374 9.51804 5.46215C9.86653 5.51871 10.2237 5.53177 10.5766 5.56658C10.7552 5.58398 10.8031 5.53177 10.7682 5.34901C10.5896 4.40912 10.7116 3.49534 11.1211 2.63813C11.8224 1.17608 12.9986 0.288407 14.5972 0.0534348C16.0173 -0.155429 17.2937 0.249245 18.3522 1.2457C18.5134 1.398 18.6571 1.43716 18.8749 1.38059C19.7287 1.16303 20.5433 0.854081 21.31 0.418947C21.3317 0.405893 21.3579 0.401542 21.4363 0.371082C21.0791 1.41975 20.4475 2.19429 19.5632 2.78607C19.7679 2.82524 20.3734 2.71645 20.7916 2.58591C21.1923 2.45972 21.5931 2.34659 21.9764 2.17689C22.0287 2.23345 21.9808 2.26391 21.959 2.29437C21.4494 3.01234 20.8656 3.66069 20.1687 4.20026C20.0728 4.27423 19.9814 4.35691 19.8812 4.42653C19.8071 4.47874 19.8028 4.54401 19.8071 4.61799C19.8376 5.40993 19.781 6.19752 19.6677 6.97641C19.5501 7.77271 19.3497 8.54724 19.084 9.30873C18.8662 9.93097 18.6092 10.5358 18.3043 11.1232C17.5507 12.5679 16.5705 13.8385 15.3465 14.922C14.044 16.0707 12.5629 16.8975 10.9076 17.4109C9.87524 17.7329 8.81671 17.92 7.73205 17.9766C6.89568 18.0201 6.06367 18.0071 5.23601 17.9026C4.05116 17.759 2.90986 17.437 1.81213 16.9671C1.2502 16.7278 0.718754 16.4406 0.187312 16.1403C0.113258 16.1099 0.0392048 16.0751 0 15.9793Z" fill="#9C9C9F"/>
</svg>
