<svg width="28" height="19" viewBox="0 0 28 19" fill="none" xmlns="http://www.w3.org/2000/svg">
<path d="M8.58582 4.64577C9.86871 4.64577 10.9087 3.60578 10.9087 2.32288C10.9087 1.03999 9.86871 0 8.58582 0C7.30293 0 6.26294 1.03999 6.26294 2.32288C6.26294 3.60578 7.30293 4.64577 8.58582 4.64577Z" fill="#9C9C9F"/>
<path d="M19.4259 4.64577C20.7088 4.64577 21.7488 3.60578 21.7488 2.32288C21.7488 1.03999 20.7088 0 19.4259 0C18.143 0 17.103 1.03999 17.103 2.32288C17.103 3.60578 18.143 4.64577 19.4259 4.64577Z" fill="#9C9C9F"/>
<path d="M1.39656 17.6582C1.14707 17.6579 0.902221 17.5908 0.68739 17.464C0.472559 17.3372 0.295576 17.1552 0.174795 16.9369C0.0540142 16.7186 -0.006165 16.4719 0.000499066 16.2225C0.00716313 15.9731 0.0804278 15.7301 0.212694 15.5185L3.72264 9.90509C3.91986 9.59198 4.23316 9.36983 4.59389 9.28733C4.95461 9.20483 5.33333 9.2687 5.64705 9.46496C5.96076 9.66121 6.18387 9.97383 6.26748 10.3343C6.35109 10.6948 6.28838 11.0737 6.0931 11.388L2.58315 17.0014C2.45747 17.2027 2.28257 17.3686 2.07496 17.4836C1.86734 17.5985 1.63386 17.6586 1.39656 17.6582Z" fill="#9C9C9F"/>
<path d="M13.993 18.6264C11.8663 18.6324 9.76648 18.1504 7.85528 17.2174C5.94407 16.2845 4.27239 14.9255 2.96887 13.2451L5.17274 11.5232C6.21846 12.864 7.55607 13.9487 9.08391 14.695C10.6117 15.4412 12.2896 15.8294 13.99 15.8299C15.6903 15.8304 17.3684 15.4433 18.8967 14.698C20.425 13.9527 21.7633 12.8688 22.8098 11.5287L25.0123 13.2505C23.7087 14.9293 22.0376 16.2868 20.1273 17.2188C18.217 18.1507 16.1185 18.6322 13.993 18.6264Z" fill="#9C9C9F"/>
<path d="M26.6025 17.6582C26.3652 17.6586 26.1317 17.5985 25.9241 17.4836C25.7165 17.3687 25.5416 17.2027 25.4159 17.0014L21.906 11.388C21.7107 11.0737 21.648 10.6948 21.7316 10.3343C21.8152 9.97382 22.0383 9.66121 22.352 9.46495C22.6657 9.2687 23.0445 9.20483 23.4052 9.28733C23.7659 9.36983 24.0792 9.59198 24.2764 9.90509L27.7864 15.5186C27.9187 15.7301 27.992 15.9732 27.9986 16.2225C28.0053 16.4719 27.9451 16.7186 27.8243 16.9369C27.7035 17.1552 27.5266 17.3372 27.3117 17.464C27.0969 17.5909 26.852 17.6579 26.6026 17.6582H26.6025Z" fill="#9C9C9F"/>
</svg>
