<svg width="30" height="18" viewBox="0 0 30 18" fill="none" xmlns="http://www.w3.org/2000/svg">
<path d="M29.9989 0.306408C29.9989 0.405838 29.9668 0.497152 29.8982 0.580348C29.8318 0.661516 29.7589 0.704129 29.6786 0.704129C29.0229 0.762976 28.484 0.96488 28.0661 1.30781C27.6483 1.65075 27.2165 2.30516 26.7698 3.27105L19.96 17.797C19.915 17.932 19.7886 17.9999 19.585 17.9999C19.5093 18.0013 19.4346 17.9831 19.3689 17.9474C19.3032 17.9116 19.2491 17.8597 19.2122 17.797L15.3895 10.2505L11.001 17.794C10.964 17.8569 10.9095 17.9091 10.8434 17.9449C10.7773 17.9806 10.7021 17.9986 10.6261 17.9969C10.4311 17.9969 10.3014 17.9289 10.2404 17.794L3.55166 3.27105C3.13382 2.36401 2.69241 1.7309 2.22957 1.37072C1.76887 1.01054 1.12604 0.78834 0.29678 0.703114C0.226069 0.703114 0.1575 0.665574 0.0964304 0.595567C0.0338306 0.528351 -0.000488151 0.441686 5.24707e-06 0.352065C5.24707e-06 0.122766 0.0707171 0.00710213 0.214283 0.00710213C0.809976 0.00710213 1.43567 0.0324673 2.08493 0.083197C2.69027 0.133927 3.26025 0.156248 3.79487 0.156248C4.33806 0.156248 4.97875 0.130883 5.71909 0.080153C6.40365 0.0323284 7.08974 0.00661071 7.77615 0.00304405C7.91758 0.00304405 7.98829 0.119722 7.98829 0.352065C7.98829 0.583392 7.94543 0.699056 7.85544 0.699056C7.25867 0.73964 6.7894 0.884727 6.44656 1.13026C6.10371 1.37681 5.93229 1.69843 5.93229 2.09717C5.93229 2.30009 6.00408 2.55374 6.14657 2.85811L11.6021 14.7086L14.8055 9.06744L11.8785 3.26598C11.3535 2.22298 10.9207 1.55132 10.5821 1.251C10.2446 0.949661 9.73251 0.766019 9.04789 0.698041C8.98361 0.698041 8.92361 0.662531 8.86576 0.592524C8.80842 0.523127 8.77815 0.437114 8.78005 0.349021C8.78005 0.119722 8.84112 0.00405857 8.96647 0.00405857C9.56216 0.00405857 10.1096 0.0284087 10.6089 0.0791385C11.0889 0.129868 11.601 0.154218 12.1442 0.154218C12.6778 0.154218 13.2424 0.127839 13.8392 0.0771094C14.4427 0.0265607 15.0482 0.000833187 15.6541 0C15.7966 0 15.8684 0.116678 15.8684 0.348006C15.8684 0.581363 15.8234 0.694997 15.7344 0.694997C14.542 0.771092 13.9452 1.09272 13.9452 1.66089C13.9452 1.91454 14.0845 2.31023 14.3588 2.84391L16.2937 6.5624L18.2222 3.16858C18.4879 2.68462 18.6218 2.27777 18.6218 1.94701C18.6218 1.1678 18.0251 0.752829 16.8326 0.7021C16.7255 0.7021 16.6719 0.583392 16.6719 0.35105C16.6719 0.269882 16.6987 0.188714 16.7523 0.115664C16.8058 0.0405836 16.8594 0.00405857 16.913 0.00405857C17.3415 0.00405857 17.8665 0.0284087 18.4879 0.0791385C19.0847 0.129868 19.5743 0.155233 19.9557 0.155233C20.2321 0.155233 20.6371 0.134941 21.1717 0.0943573C21.8467 0.0355108 22.4146 0.00608761 22.8667 0.00608761C22.9738 0.00608761 23.0274 0.104504 23.0274 0.303364C23.0274 0.567159 22.9288 0.701085 22.7338 0.701085C22.0428 0.767034 21.4803 0.948646 21.0625 1.24491C20.6382 1.54218 20.1111 2.21588 19.479 3.26395L16.9183 7.75861L20.3853 14.4549L25.5173 3.16452C25.6952 2.74854 25.7852 2.36705 25.7852 2.02006C25.7852 1.18809 25.1873 0.748771 23.9959 0.698041C23.8888 0.698041 23.8352 0.581363 23.8352 0.349021C23.8352 0.118707 23.9145 0.00405857 24.0752 0.00405857C24.5102 0.00405857 25.0255 0.0294232 25.6223 0.080153C26.1741 0.128854 26.6369 0.154218 27.0108 0.154218C27.4019 0.154218 27.8572 0.127839 28.3715 0.0781239C28.905 0.0273942 29.385 0.00101452 29.8125 0.00101452C29.9379 0.00101452 30 0.0994305 30 0.298291L29.9989 0.306408Z" fill="#9C9C9F"/>
</svg>
