<svg width="220" height="60" viewBox="0 0 220 60" fill="none" xmlns="http://www.w3.org/2000/svg">
<path fill-rule="evenodd" clip-rule="evenodd" d="M86.7307 12.6896C81.9543 12.6896 63.8539 32.491 58.449 36.7596C59.3289 34.7439 62.4713 30.9496 62.8484 30.5938C63.2255 30.2381 63.2255 29.5267 62.3456 29.5267C61.34 29.5267 58.9518 31.1867 55.0552 32.2539C58.8261 27.7481 61.7171 23.2424 61.7171 20.1596C61.7171 18.9738 61.34 17.3138 59.3289 17.3138C51.6614 17.3138 43.6168 24.7838 41.9827 30.3567C41.2285 31.0681 39.8459 32.3724 38.5889 34.2696C38.5889 34.2696 38.5889 34.2696 38.4632 34.3881C37.0805 35.5739 16.592 52.1739 3.64521 52.6481C5.65635 41.9767 34.4409 7.59098 48.7703 6.87955C48.2675 9.6067 44.8737 13.2824 41.3542 16.6024C38.8403 17.4324 34.0638 21.1081 31.2985 23.7167C30.1672 24.7838 28.1561 29.6453 30.67 29.6453C32.1784 29.6453 51.6614 15.2981 51.6614 6.40527C51.6614 4.74526 50.5301 2.61098 47.5134 2.61098C29.7901 2.61098 0 33.6767 0 54.7824C0 57.7467 1.75975 59.6439 4.27369 59.6439C12.9468 59.6439 28.7845 46.8381 36.2007 39.8424C35.9493 40.791 35.8236 41.8581 35.8236 43.0439C35.8236 44.941 36.7034 46.3639 38.3375 46.3639C40.3487 46.3639 46.6335 41.5024 52.1641 35.5739C54.1753 35.3367 55.6837 34.8624 56.8149 34.3881C53.9239 38.1824 49.1474 45.771 52.6669 45.771C55.0552 45.771 65.3623 34.8624 72.6527 26.9181C70.1388 31.1867 67.8762 36.5224 67.8762 41.621C67.8762 46.9567 70.6416 50.2767 70.6416 48.3796C70.6416 37.1153 78.6861 23.8353 86.9821 16.1281C87.7363 15.1796 88.2391 12.6896 86.7307 12.6896ZM58.449 22.2938C58.1976 24.5467 53.7982 29.0524 49.1474 33.0839C48.7703 33.0839 48.5189 33.2024 48.1418 33.2024C40.4743 33.2024 49.9016 22.8867 58.449 22.2938ZM39.0917 40.3167C39.2174 38.6567 40.7257 35.9296 42.1084 33.9139C42.6112 34.981 43.8682 35.6924 45.7536 35.9296C43.114 38.0639 40.6 39.7239 39.0917 40.3167Z" fill="#162D47"/>
<path fill-rule="evenodd" clip-rule="evenodd" d="M120.92 20.6314C118.029 20.6314 108.728 26.9157 103.197 31.4214C104.328 29.9986 105.585 28.3386 107.094 26.6786C121.549 18.7343 135.501 6.40286 135.501 2.25286C135.501 1.06714 134.747 0 133.616 0C129.468 0 110.99 14.94 102.192 26.56C100.432 27.39 98.7978 28.1014 97.1637 28.6943C99.5519 25.3743 101.312 22.1729 101.312 19.6829C101.312 18.4972 100.935 16.8372 98.9234 16.8372C90.3761 16.8372 80.8231 25.3743 80.8231 30.3543C79.0634 32.6072 76.9265 36.1643 76.9265 40.7886C76.9265 42.6857 77.8064 44.1086 79.4404 44.1086C81.703 44.1086 88.6163 38.5357 94.147 32.37C95.9067 31.8957 97.6665 31.1843 99.5519 30.4729C98.295 32.6072 97.5408 34.6229 97.5408 36.0457C97.5408 37.7057 97.7922 39.1286 98.9234 39.1286C99.4262 39.1286 100.558 38.0615 101.437 36.9943C105.083 32.1329 114.636 25.3743 119.412 24.5443C118.532 28.8129 107.094 39.3657 102.443 41.7372C102.946 39.84 104.706 37.7057 104.077 37.7057C103.197 37.7057 99.5519 41.1443 99.5519 42.8043C99.5519 44.9386 100.558 47.4286 102.317 47.4286C105.962 47.4286 123.309 29.5243 123.309 22.5286C123.183 21.8172 122.429 20.6314 120.92 20.6314ZM97.9179 21.58C97.1637 23.5957 94.0213 27.2714 90.2504 30.5914C88.9934 30.8286 87.7364 31.0657 86.7309 31.0657C79.3148 31.0657 89.8733 22.1729 97.9179 21.58ZM80.0689 38.2986C80.1946 36.9943 81.0745 34.9786 82.0801 32.9629C82.96 33.5557 84.2169 33.9114 86.1024 33.9114C86.3538 33.9114 86.6052 33.9114 86.7309 33.9114C84.2169 35.69 81.8287 37.35 80.0689 38.2986ZM130.85 6.40286C126.702 11.2643 118.406 17.6672 111.619 21.9357C118.784 14.3472 127.582 6.75858 130.85 6.40286Z" fill="#162D47"/>
<path fill-rule="evenodd" clip-rule="evenodd" d="M213.936 15.2957C198.224 15.2957 161.395 37.7057 156.241 35.4529C157.121 31.7771 161.395 27.5086 163.029 25.8486C164.286 24.6629 161.395 21.9357 160.263 23.0029C158.881 24.3071 149.956 29.9986 145.431 32.2514C148.071 28.9314 153.601 23.7143 154.984 22.2914C156.367 20.9871 154.23 18.0229 152.344 19.8014C151.087 20.9871 134.495 34.3857 124.565 35.2157C124.565 34.1486 125.194 32.8443 126.199 31.3029C129.719 30.4729 138.518 25.3743 141.409 22.6471C144.551 19.6829 144.677 14.8214 141.409 14.8214C135.627 14.8214 121.8 26.3229 121.8 34.9786C121.8 38.0614 123.057 39.9586 125.068 39.9586C128.588 39.9586 137.135 34.03 143.671 29.2871C141.032 33.3186 139.649 37.1129 142.414 37.1129C144.551 37.1129 151.59 31.8957 155.99 28.3386C154.733 30.2357 153.601 32.2514 153.601 33.9114C153.601 36.52 155.487 39.2472 157.624 39.2472C166.045 39.2472 201.24 15.77 218.712 22.1729C220.472 20.8686 221.603 15.2957 213.936 15.2957ZM141.409 18.7343C140.403 21.6986 133.741 25.73 129.342 27.6271C133.238 23.24 138.518 19.09 141.409 18.7343Z" fill="#162D47"/>
<path fill-rule="evenodd" clip-rule="evenodd" d="M157.372 14.4479C160.012 14.4479 164.914 14.0922 167.931 11.6022C168.811 10.7722 167.931 10.4165 165.291 10.6536C162.4 11.0093 159.006 11.0093 157.498 10.6536C155.361 10.0608 154.733 14.4479 157.372 14.4479Z" fill="#162D47"/>
</svg>
