<svg width="189" height="196" viewBox="0 0 189 196" fill="none" xmlns="http://www.w3.org/2000/svg">
<path d="M0.679093 92.778C1.55176 89.1226 3.12255 85.6412 5.39148 82.6821C7.6604 79.7229 10.802 77.46 14.2927 75.7194C19.1796 73.4565 24.4156 72.5861 29.8261 71.8899V65.6235C29.8261 63.1865 29.8261 60.7496 30.3497 58.3126C30.8733 55.8757 31.9205 53.6128 33.3167 51.524C36.1093 47.5204 40.298 44.7353 44.4868 42.1243C51.2936 37.7726 58.2749 33.421 65.0817 29.0693C62.6382 29.2433 60.3693 29.2433 57.9258 28.8952C52.8644 28.1989 47.9775 26.6323 43.2651 25.2398C38.5527 23.8472 33.1422 22.9769 28.2553 23.8472C25.2882 24.3694 22.4957 25.5879 20.2268 27.5027C17.9578 29.2433 16.387 31.6803 15.5144 34.2913H9.58027C13.7691 24.1954 21.274 15.1439 31.3969 9.39964C37.331 6.09236 44.1378 4.17762 50.9445 4.00355C56.3551 3.82948 61.7656 4.87389 67.1761 6.09236C72.4121 7.13677 77.8226 8.35524 83.2331 8.52931C88.12 8.70337 93.0069 8.18117 97.7193 6.78863C100.861 5.74423 104.003 4.35169 106.795 2.78508L105.224 8.18117L69.2705 36.206C67.8742 37.2504 66.6525 38.2948 65.4308 39.6874C64.209 41.0799 63.3364 42.4725 62.6382 44.0391C61.242 47.1723 61.242 50.6536 61.242 54.135V89.6448V114.362C61.242 119.062 61.0674 123.936 59.8457 128.462C58.624 132.988 56.5296 137.339 53.9116 141.343C45.3595 153.528 31.5714 161.535 17.2597 165.016L14.9908 159.272C17.9578 157.531 20.5758 155.268 22.6702 152.483C26.5099 147.435 28.4298 140.995 29.3025 134.728C30.0006 128.288 29.8261 122.021 29.8261 115.581C29.8261 110.011 29.8261 104.615 29.8261 99.0444C27.3826 99.0444 24.9392 99.0444 22.3212 99.0444C20.7504 99.0444 19.3541 99.0444 17.7833 99.3925C16.387 99.5666 14.8163 100.089 13.5945 100.959C10.9765 102.526 9.2312 105.137 8.53307 107.922C8.184 109.663 8.00947 111.403 8.35854 113.144H3.64615C0.330027 107.052 -0.891703 99.5666 0.679093 92.778ZM52.3408 177.549C44.1378 178.245 35.9347 180.16 28.4298 183.641C21.623 186.6 15.5144 190.952 10.1039 196H3.99522C17.0852 173.197 40.298 155.964 66.1289 150.568C67.5252 148.48 68.7469 146.391 69.7941 144.128C70.8413 141.691 71.7139 138.906 72.2375 136.295C72.7611 133.51 72.7611 130.899 72.7611 128.114V52.2202C82.0114 40.2096 93.007 29.7655 105.399 20.8881C117.965 11.8366 132.102 4.87389 146.763 0L186.207 46.1279L155.839 67.3641C161.075 69.2789 166.136 71.5417 171.023 74.1527C177.481 77.6341 183.415 81.6377 189 86.3375V147.261L107.668 189.211C90.738 180.334 71.3649 175.982 52.3408 177.549ZM114.649 21.9325C112.555 23.6732 110.635 25.5879 109.238 27.8508C106.97 31.3321 105.573 35.3357 105.05 39.5133V89.4707V103.048C105.05 106.703 105.05 110.533 104.352 114.188C103.653 117.844 102.606 121.499 100.861 124.806C97.3703 131.421 91.9597 136.817 86.3747 141.691C83.7567 143.954 81.1387 146.391 78.5207 148.654C89.6908 147.957 101.035 149.35 111.682 153.179C112.729 153.528 113.776 153.876 114.649 154.398C114.649 110.359 114.649 66.1456 114.649 21.9325ZM121.63 82.6821L154.093 58.4867L121.63 20.54C121.63 41.254 121.63 61.968 121.63 82.6821ZM121.63 116.973L153.57 100.785C149.905 98.3481 146.239 95.9112 142.4 93.8224C135.767 90.167 128.786 87.0338 121.63 84.4227V116.973ZM121.63 142.387L157.06 124.458V106.877L121.63 124.632V142.387ZM137.338 168.323L157.235 159.098V132.291L121.63 150.22V157.705C127.215 160.664 132.626 164.146 137.338 168.323Z" fill="#C6CDB8"/>
</svg>
