<svg width="23" height="23" viewBox="0 0 23 23" fill="none" xmlns="http://www.w3.org/2000/svg">
<path d="M11.5062 0C5.16273 0 0.00308976 5.15621 2.93067e-06 11.4961C-0.00154049 13.6676 0.606566 15.7835 1.75796 17.6138L2.03114 18.049L0.868946 22.2916L5.22138 21.1496L5.64119 21.398C7.40686 22.4459 9.43028 23 11.4954 23H11.5C17.8388 23 22.9985 17.8422 23 11.5039C23.0015 8.43266 21.8054 5.54358 19.6354 3.3706C17.4653 1.19761 14.5776 0.00154331 11.5062 0ZM18.271 16.4378C17.9824 17.245 16.601 17.9827 15.9373 18.0815C15.3416 18.171 14.5884 18.208 13.7596 17.9441C13.258 17.7851 12.6128 17.5722 11.7886 17.2157C8.32056 15.7186 6.05483 12.2277 5.88196 11.9977C5.7091 11.7678 4.46974 10.1241 4.46974 8.42186C4.46974 6.71959 5.36338 5.88465 5.67978 5.53895C5.99618 5.19325 6.37123 5.10682 6.6012 5.10682C6.83117 5.10682 7.06268 5.10837 7.26332 5.11917C7.47477 5.12997 7.7603 5.03892 8.0412 5.7118C8.32982 6.40321 9.02127 8.10548 9.10771 8.27833C9.19414 8.45118 9.25124 8.65336 9.13703 8.88331C9.02127 9.11327 8.96417 9.25834 8.7913 9.46051C8.61844 9.66269 8.4286 9.91116 8.27272 10.0655C8.09985 10.2383 7.91927 10.4251 8.12146 10.7708C8.32365 11.1165 9.01664 12.2493 10.0446 13.1645C11.3657 14.342 12.4785 14.7062 12.8243 14.8791C13.17 15.0519 13.3722 15.0226 13.5728 14.7927C13.775 14.5627 14.4371 13.7833 14.6671 13.4376C14.8971 13.0919 15.1286 13.149 15.445 13.2648C15.7614 13.3805 17.4622 14.217 17.8079 14.3899C18.1537 14.5627 18.3836 14.6491 18.4701 14.7942C18.5596 14.9393 18.5596 15.6307 18.271 16.4378Z" fill="white"/>
</svg>
